# xmcd
#
# Track frame offsets:
#	150
#	23430
#	44229
#	64939
#	98473
#	119262
#	137872
#	165220
#	179446
#	203922
#	222210
#	242559
#
# Disc length: 3487 seconds
# Revision: 0
# Processed by: cddbd v1.5.2PL0 Copyright (c) Steve Scherf et al.
# Submitted via: dBpowerAMP V12.0
#
DISCID=a20d9d0c
DTITLE=Various Artist - The Blues Magazine - Way Down South
DYEAR=2016
DGENRE=Southern Rock
TTITLE0=Black Stone Cherry - The Rambler
TTITLE1=Blackberry Smoke - No Way Back To Eden
TTITLE2=Buck and Evans - Run Cold
TTITLE3=Warren Haynes - Coal Tattoo
TTITLE4=Monster Truck - For The People
TTITLE5=No Sinner - Tryin'
TTITLE6=Royal Southern Brotherhood - Blood Is Thicker Than Water
TTITLE7=Devon Allman - Half The Truth
TTITLE8=Gov't Mule - World Boss
TTITLE9=Supersuckers - All My Rowdy Friends
TTITLE10=Dirty Thrills - Is This Home
TTITLE11=Long John Laundry - Flesh Of My Bones
EXTD=
EXTT0=
EXTT1=
EXTT2=
EXTT3=
EXTT4=
EXTT5=
EXTT6=
EXTT7=
EXTT8=
EXTT9=
EXTT10=
EXTT11=
PLAYORDER=
